<svg width="88" height="88" viewBox="0 0 88 88" fill="none" xmlns="http://www.w3.org/2000/svg">
<path opacity="0.5" d="M44 0.666664C35.4295 0.666664 27.0514 3.20812 19.9253 7.96965C12.7991 12.7312 7.245 19.4989 3.9652 27.417C0.685402 35.3352 -0.172743 44.0481 1.49928 52.4539C3.17131 60.8598 7.29841 68.581 13.3587 74.6413C19.419 80.7016 27.1402 84.8287 35.5461 86.5007C43.9519 88.1727 52.6648 87.3146 60.5829 84.0348C68.5011 80.755 75.2688 75.2008 80.0303 68.0747C84.7919 60.9486 87.3333 52.5705 87.3333 44C87.3333 38.3094 86.2125 32.6745 84.0348 27.417C81.8571 22.1596 78.6651 17.3826 74.6413 13.3587C70.6174 9.33483 65.8404 6.14292 60.5829 3.96522C55.3255 1.78751 49.6906 0.666664 44 0.666664ZM44 78.6667C37.1436 78.6667 30.4411 76.6335 24.7402 72.8243C19.0393 69.0151 14.596 63.6009 11.9722 57.2664C9.34832 50.9319 8.6618 43.9615 9.99942 37.2369C11.337 30.5122 14.6387 24.3352 19.4869 19.487C24.3352 14.6387 30.5122 11.3371 37.2369 9.99944C43.9615 8.66182 50.9318 9.34834 57.2663 11.9722C63.6008 14.596 69.015 19.0393 72.8243 24.7402C76.6335 30.4411 78.6666 37.1436 78.6666 44C78.6666 53.1942 75.0143 62.0118 68.513 68.513C62.0118 75.0143 53.1942 78.6667 44 78.6667Z" fill="#FFC832"/>
</svg>
