<svg width="87" height="87" viewBox="0 0 87 87" fill="none" xmlns="http://www.w3.org/2000/svg">
<path opacity="0.5" d="M43.3334 0C34.7628 0 26.3848 2.54146 19.2586 7.30298C12.1325 12.0645 6.57837 18.8323 3.29857 26.7504C0.0187756 34.6685 -0.839369 43.3814 0.832657 51.7872C2.50468 60.1931 6.63178 67.9144 12.6921 73.9746C18.7523 80.0349 26.4736 84.162 34.8794 85.834C43.2853 87.5061 51.9982 86.6479 59.9163 83.3681C67.8344 80.0883 74.6022 74.5342 79.3637 67.408C84.1252 60.2819 86.6667 51.9039 86.6667 43.3333C86.6667 37.6427 85.5458 32.0078 83.3681 26.7504C81.1904 21.4929 77.9985 16.7159 73.9746 12.692C69.9508 8.66817 65.1737 5.47626 59.9163 3.29855C54.6589 1.12085 49.024 0 43.3334 0ZM43.3334 78C36.4769 78 29.7745 75.9668 24.0736 72.1576C18.3727 68.3484 13.9294 62.9342 11.3055 56.5997C8.68169 50.2652 7.99518 43.2949 9.3328 36.5702C10.6704 29.8455 13.9721 23.6685 18.8203 18.8203C23.6685 13.9721 29.8456 10.6704 36.5702 9.33278C43.2949 7.99516 50.2652 8.68167 56.5997 11.3055C62.9342 13.9293 68.3484 18.3727 72.1576 24.0736C75.9669 29.7745 78 36.4769 78 43.3333C78 52.5275 74.3477 61.3451 67.8464 67.8464C61.3451 74.3476 52.5275 78 43.3334 78Z" fill="#FFC832"/>
<path d="M78 43.3333H86.6667C86.6667 37.6427 85.5459 32.0078 83.3682 26.7504C81.1905 21.4929 77.9985 16.7159 73.9747 12.692C69.9508 8.66817 65.1738 5.47626 59.9163 3.29855C54.6589 1.12085 49.024 0 43.3334 0V8.66667C52.5275 8.66667 61.3451 12.319 67.8464 18.8203C74.3477 25.3216 78 34.1392 78 43.3333Z" fill="#FFC832"/>
</svg>
